<svg width="40" height="40" viewBox="0 0 40 40" fill="none" xmlns="http://www.w3.org/2000/svg">
<path d="M24.2409 20.6227C27.1667 19.091 29.1667 16.0318 29.1667 12.5002C29.1667 7.43766 25.0626 3.3335 20.0001 3.3335C14.9376 3.3335 10.8334 7.43766 10.8334 12.5002C10.8334 16.0318 12.8334 19.091 15.7592 20.6227C9.07508 22.5752 4.16675 29.0077 4.16675 36.6668H35.8334C35.8334 29.0077 30.9251 22.5752 24.2409 20.6227ZM12.5001 12.5002C12.5001 8.36433 15.8642 5.00016 20.0001 5.00016C24.1359 5.00016 27.5001 8.36433 27.5001 12.5002C27.5001 16.636 24.1359 20.0002 20.0001 20.0002C15.8642 20.0002 12.5001 16.636 12.5001 12.5002ZM20.0001 21.6668C27.2792 21.6668 33.2942 27.511 34.0801 35.0002H5.92008C6.70591 27.511 12.7209 21.6668 20.0001 21.6668Z" fill="black"/>
</svg>
