<svg width="40" height="40" viewBox="0 0 40 40" fill="none" xmlns="http://www.w3.org/2000/svg">
<path d="M10.5299 10.0002C6.55575 10.0002 3.33325 13.731 3.33325 18.3335C3.33325 22.3793 5.82408 25.7493 9.12659 26.506L11.6666 36.6668H21.6666L19.3174 27.271L36.6666 33.0393V3.3335L17.4999 10.0002H10.5299ZM12.9683 35.0002L10.8849 26.6668H17.4491L19.5324 35.0002H12.9683ZM10.5299 11.6668H17.4999V25.0002H10.5299C7.48075 25.0002 4.99992 22.0093 4.99992 18.3335C4.99992 14.6577 7.48075 11.6668 10.5299 11.6668ZM34.9999 30.7285L19.1666 25.4643V11.1852L34.9999 5.67766V30.7285Z" fill="black"/>
</svg>
