<svg width="33" height="33" viewBox="0 0 33 33" fill="none" xmlns="http://www.w3.org/2000/svg">
<path d="M13.04 23.3305C15.617 23.3305 17.9669 22.3765 19.7721 20.8116L29.2104 30.25L30.2498 29.2107L20.8114 19.7723C22.3762 17.9671 23.3303 15.6172 23.3303 13.0403C23.3303 7.3571 18.7232 2.75 13.04 2.75C7.35685 2.75 2.74976 7.3571 2.74976 13.0403C2.74976 18.7234 7.35685 23.3305 13.04 23.3305ZM13.04 4.22004C17.9036 4.22004 21.8602 8.17664 21.8602 13.0403C21.8602 17.9039 17.9036 21.8605 13.04 21.8605C8.1764 21.8605 4.21979 17.9039 4.21979 13.0403C4.21979 8.17664 8.1764 4.22004 13.04 4.22004Z" fill="black"/>
</svg>
